<svg width="342" height="54" viewBox="0 0 342 54" fill="none" xmlns="http://www.w3.org/2000/svg">
<path d="M141.244 20.6608C139.499 18.9163 137.105 17.8335 134.446 17.8335C129.128 17.8335 124.833 22.1407 124.833 27.4585C124.833 32.7763 129.128 37.0835 134.446 37.0835C138.934 37.0835 142.676 34.0155 143.746 29.8647H141.244C140.257 32.668 137.586 34.6772 134.446 34.6772C130.464 34.6772 127.227 31.4408 127.227 27.4585C127.227 23.4762 130.464 20.2397 134.446 20.2397C136.443 20.2397 138.224 21.0699 139.523 22.3813L135.649 26.2554H144.071V17.8335L141.244 20.6608Z" fill="black"/>
<path d="M158.027 28.0967H155.368V27.0234H158.027C158.542 27.0234 158.959 26.9414 159.278 26.7773C159.597 26.6133 159.83 26.3854 159.976 26.0938C160.126 25.8021 160.201 25.4694 160.201 25.0957C160.201 24.7539 160.126 24.4326 159.976 24.1318C159.83 23.8311 159.597 23.5895 159.278 23.4072C158.959 23.2204 158.542 23.127 158.027 23.127H155.676V32H154.356V22.0469H158.027C158.779 22.0469 159.415 22.1768 159.935 22.4365C160.454 22.6963 160.848 23.0563 161.117 23.5166C161.386 23.9723 161.521 24.4941 161.521 25.082C161.521 25.7201 161.386 26.2646 161.117 26.7158C160.848 27.167 160.454 27.5111 159.935 27.748C159.415 27.9805 158.779 28.0967 158.027 28.0967ZM164.371 21.5V32H163.1V21.5H164.371ZM170.763 30.7354V26.9277C170.763 26.6361 170.703 26.3831 170.585 26.1689C170.471 25.9502 170.298 25.7816 170.065 25.6631C169.833 25.5446 169.546 25.4854 169.204 25.4854C168.885 25.4854 168.605 25.54 168.363 25.6494C168.126 25.7588 167.939 25.9023 167.803 26.0801C167.671 26.2578 167.604 26.4492 167.604 26.6543H166.34C166.34 26.39 166.408 26.1279 166.545 25.8682C166.682 25.6084 166.878 25.3737 167.133 25.1641C167.393 24.9499 167.702 24.7812 168.062 24.6582C168.427 24.5306 168.833 24.4668 169.279 24.4668C169.817 24.4668 170.291 24.5579 170.701 24.7402C171.116 24.9225 171.439 25.1982 171.672 25.5674C171.909 25.932 172.027 26.39 172.027 26.9414V30.3867C172.027 30.6328 172.048 30.8949 172.089 31.1729C172.134 31.4508 172.201 31.6901 172.287 31.8906V32H170.968C170.904 31.8542 170.854 31.6605 170.817 31.4189C170.781 31.1729 170.763 30.945 170.763 30.7354ZM170.981 27.5156L170.995 28.4043H169.717C169.357 28.4043 169.035 28.4339 168.753 28.4932C168.47 28.5479 168.233 28.6322 168.042 28.7461C167.851 28.86 167.705 29.0036 167.604 29.1768C167.504 29.3454 167.454 29.5436 167.454 29.7715C167.454 30.0039 167.507 30.2158 167.611 30.4072C167.716 30.5986 167.873 30.7513 168.083 30.8652C168.297 30.9746 168.559 31.0293 168.869 31.0293C169.257 31.0293 169.598 30.9473 169.895 30.7832C170.191 30.6191 170.425 30.4186 170.599 30.1816C170.776 29.9447 170.872 29.7145 170.886 29.4912L171.426 30.0996C171.394 30.291 171.307 30.5029 171.166 30.7354C171.025 30.9678 170.836 31.1911 170.599 31.4053C170.366 31.6149 170.088 31.7904 169.765 31.9316C169.446 32.0684 169.086 32.1367 168.685 32.1367C168.183 32.1367 167.743 32.0387 167.365 31.8428C166.992 31.6468 166.7 31.3848 166.49 31.0566C166.285 30.724 166.183 30.3525 166.183 29.9424C166.183 29.5459 166.26 29.1973 166.415 28.8965C166.57 28.5911 166.793 28.3382 167.085 28.1377C167.377 27.9326 167.728 27.7777 168.138 27.6729C168.548 27.568 169.006 27.5156 169.512 27.5156H170.981ZM175.985 31.2344L178.043 24.6035H179.396L176.43 33.1416C176.361 33.3239 176.27 33.5199 176.156 33.7295C176.047 33.9437 175.906 34.1465 175.732 34.3379C175.559 34.5293 175.35 34.6842 175.104 34.8027C174.862 34.9258 174.573 34.9873 174.235 34.9873C174.135 34.9873 174.007 34.9736 173.853 34.9463C173.698 34.9189 173.588 34.8962 173.524 34.8779L173.518 33.8525C173.554 33.8571 173.611 33.8617 173.688 33.8662C173.771 33.8753 173.827 33.8799 173.859 33.8799C174.146 33.8799 174.39 33.8411 174.591 33.7637C174.791 33.6908 174.96 33.5654 175.097 33.3877C175.238 33.2145 175.359 32.9753 175.459 32.6699L175.985 31.2344ZM174.475 24.6035L176.396 30.3457L176.724 31.6787L175.814 32.1436L173.094 24.6035H174.475ZM187.887 22.9287L184.592 32H183.245L187.039 22.0469H187.907L187.887 22.9287ZM190.648 32L187.347 22.9287L187.326 22.0469H188.194L192.002 32H190.648ZM190.478 28.3154V29.3955H184.886V28.3154H190.478ZM197.936 24.6035H199.084V31.8428C199.084 32.4945 198.952 33.0505 198.688 33.5107C198.423 33.971 198.054 34.3197 197.58 34.5566C197.111 34.7982 196.568 34.9189 195.953 34.9189C195.698 34.9189 195.397 34.8779 195.051 34.7959C194.709 34.7184 194.372 34.584 194.039 34.3926C193.711 34.2057 193.435 33.9528 193.212 33.6338L193.875 32.8818C194.185 33.2555 194.508 33.5153 194.846 33.6611C195.188 33.807 195.525 33.8799 195.857 33.8799C196.258 33.8799 196.605 33.8047 196.896 33.6543C197.188 33.5039 197.414 33.2806 197.573 32.9844C197.737 32.6927 197.819 32.3327 197.819 31.9043V26.2305L197.936 24.6035ZM192.843 28.3838V28.2402C192.843 27.6751 192.909 27.1624 193.041 26.7021C193.178 26.2373 193.371 25.8385 193.622 25.5059C193.877 25.1732 194.185 24.918 194.545 24.7402C194.905 24.5579 195.311 24.4668 195.762 24.4668C196.227 24.4668 196.632 24.5488 196.979 24.7129C197.329 24.8724 197.626 25.1071 197.867 25.417C198.113 25.7223 198.307 26.0915 198.448 26.5244C198.59 26.9574 198.688 27.4473 198.742 27.9941V28.623C198.692 29.1654 198.594 29.653 198.448 30.0859C198.307 30.5189 198.113 30.888 197.867 31.1934C197.626 31.4987 197.329 31.7334 196.979 31.8975C196.628 32.057 196.217 32.1367 195.748 32.1367C195.306 32.1367 194.905 32.0433 194.545 31.8564C194.189 31.6696 193.884 31.4076 193.629 31.0703C193.374 30.7331 193.178 30.3366 193.041 29.8809C192.909 29.4206 192.843 28.9215 192.843 28.3838ZM194.107 28.2402V28.3838C194.107 28.7529 194.144 29.0993 194.217 29.4229C194.294 29.7464 194.41 30.0312 194.565 30.2773C194.725 30.5234 194.928 30.7171 195.174 30.8584C195.42 30.9951 195.714 31.0635 196.056 31.0635C196.475 31.0635 196.821 30.9746 197.095 30.7969C197.368 30.6191 197.585 30.3844 197.744 30.0928C197.908 29.8011 198.036 29.4844 198.127 29.1426V27.4951C198.077 27.2445 197.999 27.0029 197.895 26.7705C197.794 26.5335 197.662 26.3239 197.498 26.1416C197.339 25.9548 197.14 25.8066 196.903 25.6973C196.666 25.5879 196.388 25.5332 196.069 25.5332C195.723 25.5332 195.424 25.6061 195.174 25.752C194.928 25.8932 194.725 26.0892 194.565 26.3398C194.41 26.5859 194.294 26.873 194.217 27.2012C194.144 27.5247 194.107 27.8711 194.107 28.2402ZM205.366 30.7354V26.9277C205.366 26.6361 205.307 26.3831 205.188 26.1689C205.075 25.9502 204.901 25.7816 204.669 25.6631C204.437 25.5446 204.149 25.4854 203.808 25.4854C203.489 25.4854 203.208 25.54 202.967 25.6494C202.73 25.7588 202.543 25.9023 202.406 26.0801C202.274 26.2578 202.208 26.4492 202.208 26.6543H200.943C200.943 26.39 201.012 26.1279 201.148 25.8682C201.285 25.6084 201.481 25.3737 201.736 25.1641C201.996 24.9499 202.306 24.7812 202.666 24.6582C203.031 24.5306 203.436 24.4668 203.883 24.4668C204.421 24.4668 204.895 24.5579 205.305 24.7402C205.719 24.9225 206.043 25.1982 206.275 25.5674C206.512 25.932 206.631 26.39 206.631 26.9414V30.3867C206.631 30.6328 206.651 30.8949 206.692 31.1729C206.738 31.4508 206.804 31.6901 206.891 31.8906V32H205.571C205.507 31.8542 205.457 31.6605 205.421 31.4189C205.384 31.1729 205.366 30.945 205.366 30.7354ZM205.585 27.5156L205.599 28.4043H204.32C203.96 28.4043 203.639 28.4339 203.356 28.4932C203.074 28.5479 202.837 28.6322 202.646 28.7461C202.454 28.86 202.308 29.0036 202.208 29.1768C202.108 29.3454 202.058 29.5436 202.058 29.7715C202.058 30.0039 202.11 30.2158 202.215 30.4072C202.32 30.5986 202.477 30.7513 202.687 30.8652C202.901 30.9746 203.163 31.0293 203.473 31.0293C203.86 31.0293 204.202 30.9473 204.498 30.7832C204.794 30.6191 205.029 30.4186 205.202 30.1816C205.38 29.9447 205.476 29.7145 205.489 29.4912L206.029 30.0996C205.997 30.291 205.911 30.5029 205.77 30.7354C205.628 30.9678 205.439 31.1911 205.202 31.4053C204.97 31.6149 204.692 31.7904 204.368 31.9316C204.049 32.0684 203.689 32.1367 203.288 32.1367C202.787 32.1367 202.347 32.0387 201.969 31.8428C201.595 31.6468 201.303 31.3848 201.094 31.0566C200.889 30.724 200.786 30.3525 200.786 29.9424C200.786 29.5459 200.864 29.1973 201.019 28.8965C201.174 28.5911 201.397 28.3382 201.688 28.1377C201.98 27.9326 202.331 27.7777 202.741 27.6729C203.151 27.568 203.609 27.5156 204.115 27.5156H205.585ZM209.994 24.6035V32H208.723V24.6035H209.994ZM208.627 22.6416C208.627 22.4365 208.688 22.2633 208.812 22.1221C208.939 21.9808 209.126 21.9102 209.372 21.9102C209.614 21.9102 209.798 21.9808 209.926 22.1221C210.058 22.2633 210.124 22.4365 210.124 22.6416C210.124 22.8376 210.058 23.0062 209.926 23.1475C209.798 23.2842 209.614 23.3525 209.372 23.3525C209.126 23.3525 208.939 23.2842 208.812 23.1475C208.688 23.0062 208.627 22.8376 208.627 22.6416ZM213.289 26.1826V32H212.024V24.6035H213.221L213.289 26.1826ZM212.988 28.0215L212.462 28.001C212.466 27.4951 212.542 27.028 212.688 26.5996C212.833 26.1667 213.038 25.7907 213.303 25.4717C213.567 25.1527 213.882 24.9066 214.246 24.7334C214.615 24.5557 215.023 24.4668 215.47 24.4668C215.834 24.4668 216.162 24.5169 216.454 24.6172C216.746 24.7129 216.994 24.8678 217.199 25.082C217.409 25.2962 217.568 25.5742 217.678 25.916C217.787 26.2533 217.842 26.6657 217.842 27.1533V32H216.57V27.1396C216.57 26.7523 216.513 26.4424 216.399 26.21C216.285 25.973 216.119 25.8021 215.9 25.6973C215.682 25.5879 215.413 25.5332 215.094 25.5332C214.779 25.5332 214.492 25.5993 214.232 25.7314C213.977 25.8636 213.756 26.0459 213.569 26.2783C213.387 26.5107 213.243 26.7773 213.139 27.0781C213.038 27.3743 212.988 27.6888 212.988 28.0215Z" fill="black"/>
<rect x="0.5" y="0.5" width="341" height="53" rx="3.5" stroke="#E3E3E3"/>
</svg>
